<svg class="icon" viewBox="0 0 1024 1024" xmlns="http://www.w3.org/2000/svg" width="128" height="128"><path d="M219.424 658.272q0-30.272-21.44-51.712t-51.712-21.44-51.712 21.44-21.44 51.712 21.44 51.712 51.712 21.44 51.712-21.44 21.44-51.712zm109.728-256q0-30.272-21.44-51.712T256 329.12t-51.712 21.44-21.44 51.712 21.44 51.712T256 475.424t51.712-21.44 21.44-51.712zm244.576 274.88l57.728-218.272q3.424-14.848-4.288-27.712t-22.016-16.864-27.424 3.712-17.152 22.56l-57.728 218.272q-34.272 2.848-61.152 24.864t-36 56.288q-11.424 44 11.424 83.424t66.848 50.848 83.424-11.424T618.24 796q9.152-34.272-3.424-66.848t-41.152-52zm377.12-18.88q0-30.272-21.44-51.712t-51.712-21.44-51.712 21.44-21.44 51.712 21.44 51.712 51.712 21.44 51.712-21.44 21.44-51.712zM585.152 292.576q0-30.272-21.44-51.712T512 219.424t-51.712 21.44-21.44 51.712 21.44 51.712T512 365.728t51.712-21.44 21.44-51.712zm256 109.696q0-30.272-21.44-51.712T768 329.12t-51.712 21.44-21.44 51.712 21.44 51.712T768 475.424t51.712-21.44 21.44-51.712zm182.848 256q0 149.152-80.576 276-10.848 16.576-30.848 16.576H111.424q-20 0-30.848-16.576Q0 808 0 658.272q0-104 40.576-198.848T149.728 296t163.424-109.152T512 146.272t198.848 40.576T874.272 296t109.152 163.424T1024 658.272z"/></svg>